<svg xmlns="http://www.w3.org/2000/svg" width="512" height="512" viewBox="0 0 512 512">
  <defs>
    <linearGradient id="bg" x1="0" y1="0" x2="1" y2="1">
      <stop offset="0" stop-color="#eef1ff"/>
      <stop offset="1" stop-color="#dff5ef"/>
    </linearGradient>
    <linearGradient id="body" x1="0" y1="0" x2="0" y2="1">
      <stop offset="0" stop-color="#9aa0ff"/>
      <stop offset="1" stop-color="#6fd0c0"/>
    </linearGradient>
    <radialGradient id="belly" cx="0.5" cy="0.42" r="0.6">
      <stop offset="0" stop-color="#ffffff" stop-opacity="0.85"/>
      <stop offset="1" stop-color="#ffffff" stop-opacity="0"/>
    </radialGradient>
  </defs>

  <!-- full-bleed backdrop (maskable safe) -->
  <rect x="0" y="0" width="512" height="512" fill="url(#bg)"/>

  <!-- mascot scaled down into the safe zone -->
  <g transform="translate(256 268) scale(0.74) translate(-256 -268)">
    <ellipse cx="256" cy="408" rx="120" ry="26" fill="#5b6bb0" opacity="0.12"/>
    <path d="M256 150 C256 120 256 104 256 94" stroke="#6fd0c0" stroke-width="10" stroke-linecap="round" fill="none"/>
    <path d="M256 110 C236 100 222 108 216 126 C238 132 252 126 256 110 Z" fill="#7fd8c8"/>
    <path d="M256 122 C274 110 290 116 296 132 C276 142 260 138 256 122 Z" fill="#92e0d2"/>
    <ellipse cx="256" cy="266" rx="148" ry="150" fill="url(#body)"/>
    <ellipse cx="256" cy="284" rx="112" ry="116" fill="url(#belly)"/>
    <ellipse cx="186" cy="290" rx="26" ry="18" fill="#ff9fb6" opacity="0.65"/>
    <ellipse cx="326" cy="290" rx="26" ry="18" fill="#ff9fb6" opacity="0.65"/>
    <path d="M176 258 q20 22 40 0" stroke="#3a3550" stroke-width="9" stroke-linecap="round" fill="none"/>
    <path d="M296 258 q20 22 40 0" stroke="#3a3550" stroke-width="9" stroke-linecap="round" fill="none"/>
    <path d="M226 312 q30 30 60 0" stroke="#3a3550" stroke-width="9" stroke-linecap="round" fill="none"/>
    <path d="M118 300 q-22 14 -16 40" stroke="#7c84ef" stroke-width="16" stroke-linecap="round" fill="none"/>
    <path d="M394 300 q22 14 16 40" stroke="#6fd0c0" stroke-width="16" stroke-linecap="round" fill="none"/>
  </g>
</svg>
